<svg width="16" height="16" viewBox="0 0 16 16" fill="none" xmlns="http://www.w3.org/2000/svg">
<g clip-path="url(#clip0_579_4164)">
<path d="M8.02671 12.5776C7.83604 12.5776 7.65404 12.4956 7.52737 12.3536L0.111373 3.97089C0.052849 3.90468 0.0230256 3.81793 0.0284642 3.72972C0.0339027 3.64152 0.0741577 3.55909 0.140373 3.50056C0.206589 3.44204 0.293342 3.41221 0.381546 3.41765C0.469751 3.42309 0.552182 3.46335 0.610707 3.52956L8.02737 11.9116L15.4447 3.52956C15.5033 3.46338 15.5858 3.42314 15.674 3.41764C15.7622 3.41214 15.849 3.44184 15.9154 3.50023C15.9482 3.52924 15.9749 3.56444 15.9941 3.6038C16.0133 3.64316 16.0246 3.68591 16.0272 3.72962C16.0299 3.77333 16.0239 3.81714 16.0096 3.85853C15.9954 3.89993 15.9731 3.93811 15.944 3.97089L8.52671 12.3536C8.46383 12.424 8.38679 12.4803 8.30062 12.5189C8.21446 12.5575 8.12112 12.5775 8.02671 12.5776Z" fill="#5B5C60"/>
</g>
<defs>
<clipPath id="clip0_579_4164">
<rect width="16" height="16" fill="white"/>
</clipPath>
</defs>
</svg>
