<svg width="20" height="23" viewBox="0 0 20 23" fill="none" xmlns="http://www.w3.org/2000/svg">
<path d="M10 0.577148C4.48 0.577148 0 5.50816 0 11.5839C0 17.6596 4.48 22.5906 10 22.5906C15.52 22.5906 20 17.6596 20 11.5839C20 5.50816 15.52 0.577148 10 0.577148ZM11.41 18.287V20.3892H8.74V18.2649C7.03 17.8687 5.58 16.658 5.47 14.5227H7.43C7.53 15.6784 8.25 16.5809 10.08 16.5809C12.04 16.5809 12.48 15.5023 12.48 14.8308C12.48 13.9173 12.04 13.0588 9.81 12.4754C7.33 11.815 5.63 10.6923 5.63 8.43594C5.63 6.54279 7.02 5.31004 8.74 4.90279V2.77849H11.41V4.9248C13.27 5.4201 14.2 6.97205 14.26 8.65608H12.3C12.25 7.43433 11.66 6.59782 10.08 6.59782C8.58 6.59782 7.68 7.34628 7.68 8.40292C7.68 9.32749 8.33 9.93286 10.35 10.5052C12.37 11.0776 14.53 12.0351 14.53 14.8088C14.52 16.8231 13.15 17.9237 11.41 18.287Z" fill="black"/>
</svg>
