<svg width="18" height="23" viewBox="0 0 18 23" fill="none" xmlns="http://www.w3.org/2000/svg">
<path fill-rule="evenodd" clip-rule="evenodd" d="M15 16.1552C14.24 16.1552 13.56 16.4854 13.04 17.0027L5.91 12.4349C5.96 12.1817 6 11.9286 6 11.6644C6 11.4003 5.96 11.1471 5.91 10.894L12.96 6.3702C13.5 6.92054 14.21 7.26175 15 7.26175C16.66 7.26175 18 5.78685 18 3.95973C18 2.13262 16.66 0.657715 15 0.657715C13.34 0.657715 12 2.13262 12 3.95973C12 4.22389 12.04 4.47705 12.09 4.7302L5.04 9.25396C4.5 8.70363 3.79 8.36242 3 8.36242C1.34 8.36242 0 9.83732 0 11.6644C0 13.4915 1.34 14.9664 3 14.9664C3.79 14.9664 4.5 14.6252 5.04 14.0749L12.16 18.6537C12.11 18.8848 12.08 19.127 12.08 19.3691C12.08 21.1412 13.39 22.5831 15 22.5831C16.61 22.5831 17.92 21.1412 17.92 19.3691C17.92 17.5971 16.61 16.1552 15 16.1552Z" fill="black"/>
</svg>
