<svg width="114" height="40" viewBox="0 0 114 40" fill="none" xmlns="http://www.w3.org/2000/svg">
<rect x="0.5" y="0.5" width="113" height="39" fill="white" stroke="#24FE96"/>
<path d="M29.2119 21.9326H25.2744V26H23.2236V16.0469H29.7041V17.708H25.2744V20.2783H29.2119V21.9326ZM34.8174 26C34.7262 25.8223 34.6602 25.6012 34.6191 25.3369C34.1406 25.8701 33.5186 26.1367 32.7529 26.1367C32.0283 26.1367 31.4268 25.9271 30.9482 25.5078C30.4743 25.0885 30.2373 24.5599 30.2373 23.9219C30.2373 23.138 30.5267 22.5365 31.1055 22.1172C31.6888 21.6979 32.5296 21.486 33.6279 21.4814H34.5371V21.0576C34.5371 20.7158 34.4482 20.4424 34.2705 20.2373C34.0973 20.0322 33.8216 19.9297 33.4434 19.9297C33.1107 19.9297 32.8486 20.0094 32.6572 20.1689C32.4704 20.3285 32.377 20.5472 32.377 20.8252H30.4014C30.4014 20.3968 30.5335 20.0003 30.7979 19.6357C31.0622 19.2712 31.4359 18.9863 31.9189 18.7812C32.402 18.5716 32.9443 18.4668 33.5459 18.4668C34.4574 18.4668 35.1797 18.6969 35.7129 19.1572C36.2507 19.613 36.5195 20.2555 36.5195 21.085V24.291C36.5241 24.9928 36.6221 25.5238 36.8135 25.8838V26H34.8174ZM33.1836 24.626C33.4753 24.626 33.7441 24.5622 33.9902 24.4346C34.2363 24.3024 34.4186 24.127 34.5371 23.9082V22.6367H33.7988C32.8099 22.6367 32.2835 22.9785 32.2197 23.6621L32.2129 23.7783C32.2129 24.0244 32.2995 24.2272 32.4727 24.3867C32.6458 24.5462 32.8828 24.626 33.1836 24.626ZM40.3066 24.4072H43.9229V26H37.7842V24.7969L41.2637 20.2031H37.8867V18.6035H43.8135V19.7725L40.3066 24.4072ZM48.4551 26.1367C47.3704 26.1367 46.4863 25.804 45.8027 25.1387C45.1237 24.4733 44.7842 23.5869 44.7842 22.4795V22.2881C44.7842 21.5452 44.9277 20.8822 45.2148 20.2988C45.502 19.7109 45.9076 19.2598 46.4316 18.9453C46.9603 18.6263 47.5618 18.4668 48.2363 18.4668C49.248 18.4668 50.0433 18.7858 50.6221 19.4238C51.2054 20.0618 51.4971 20.9665 51.4971 22.1377V22.9443H46.7871C46.8509 23.4274 47.0423 23.8148 47.3613 24.1064C47.6849 24.3981 48.0928 24.5439 48.585 24.5439C49.346 24.5439 49.9408 24.2682 50.3691 23.7168L51.3398 24.8037C51.0436 25.223 50.6426 25.5511 50.1367 25.7881C49.6309 26.0205 49.0703 26.1367 48.4551 26.1367ZM48.2295 20.0664C47.8376 20.0664 47.5186 20.1986 47.2725 20.4629C47.0309 20.7272 46.876 21.1055 46.8076 21.5977H49.5557V21.4404C49.5465 21.0029 49.4281 20.6657 49.2002 20.4287C48.9723 20.1872 48.6488 20.0664 48.2295 20.0664ZM56.7812 20.4561C56.5124 20.4196 56.2754 20.4014 56.0703 20.4014C55.3229 20.4014 54.833 20.6543 54.6006 21.1602V26H52.625V18.6035H54.4912L54.5459 19.4854C54.9424 18.8063 55.4915 18.4668 56.1934 18.4668C56.4121 18.4668 56.6172 18.4964 56.8086 18.5557L56.7812 20.4561ZM63.3096 26H61.3271V15.5H63.3096V26ZM64.6357 22.2334C64.6357 21.4997 64.777 20.8457 65.0596 20.2715C65.3421 19.6973 65.7477 19.2529 66.2764 18.9385C66.8096 18.624 67.4271 18.4668 68.1289 18.4668C69.127 18.4668 69.9404 18.7721 70.5693 19.3828C71.2028 19.9935 71.556 20.8229 71.6289 21.8711L71.6426 22.377C71.6426 23.5117 71.3258 24.4232 70.6924 25.1113C70.0589 25.7949 69.209 26.1367 68.1426 26.1367C67.0762 26.1367 66.224 25.7949 65.5859 25.1113C64.9525 24.4277 64.6357 23.498 64.6357 22.3223V22.2334ZM66.6113 22.377C66.6113 23.0788 66.7435 23.6165 67.0078 23.9902C67.2721 24.3594 67.6504 24.5439 68.1426 24.5439C68.6211 24.5439 68.9948 24.3617 69.2637 23.9971C69.5326 23.6279 69.667 23.04 69.667 22.2334C69.667 21.5452 69.5326 21.012 69.2637 20.6338C68.9948 20.2555 68.6165 20.0664 68.1289 20.0664C67.6458 20.0664 67.2721 20.2555 67.0078 20.6338C66.7435 21.0075 66.6113 21.5885 66.6113 22.377ZM72.5723 22.2471C72.5723 21.1123 72.8411 20.1986 73.3789 19.5059C73.9212 18.8132 74.6504 18.4668 75.5664 18.4668C76.3776 18.4668 77.0088 18.7448 77.46 19.3008L77.542 18.6035H79.333V25.7539C79.333 26.401 79.1849 26.9639 78.8887 27.4424C78.597 27.9209 78.1846 28.2855 77.6514 28.5361C77.1182 28.7868 76.4938 28.9121 75.7783 28.9121C75.236 28.9121 74.7074 28.8027 74.1924 28.584C73.6774 28.3698 73.2878 28.0918 73.0234 27.75L73.8984 26.5469C74.3906 27.0983 74.9876 27.374 75.6895 27.374C76.2135 27.374 76.6214 27.2327 76.9131 26.9502C77.2048 26.6722 77.3506 26.2757 77.3506 25.7607V25.3643C76.8949 25.8792 76.2956 26.1367 75.5527 26.1367C74.6641 26.1367 73.944 25.7904 73.3926 25.0977C72.8457 24.4004 72.5723 23.4775 72.5723 22.3291V22.2471ZM74.5479 22.3906C74.5479 23.0605 74.6823 23.5869 74.9512 23.9697C75.2201 24.348 75.5892 24.5371 76.0586 24.5371C76.6602 24.5371 77.0908 24.3115 77.3506 23.8604V20.75C77.0863 20.2988 76.6602 20.0732 76.0723 20.0732C75.5983 20.0732 75.2246 20.2669 74.9512 20.6543C74.6823 21.0417 74.5479 21.6204 74.5479 22.3906ZM82.9424 26H80.96V18.6035H82.9424V26ZM80.8438 16.6895C80.8438 16.3932 80.9417 16.1494 81.1377 15.958C81.3382 15.7666 81.6094 15.6709 81.9512 15.6709C82.2884 15.6709 82.5573 15.7666 82.7578 15.958C82.9583 16.1494 83.0586 16.3932 83.0586 16.6895C83.0586 16.9902 82.9561 17.2363 82.751 17.4277C82.5505 17.6191 82.2839 17.7148 81.9512 17.7148C81.6185 17.7148 81.3496 17.6191 81.1445 17.4277C80.944 17.2363 80.8438 16.9902 80.8438 16.6895ZM86.3945 18.6035L86.4561 19.458C86.9847 18.7972 87.6934 18.4668 88.582 18.4668C89.3659 18.4668 89.9492 18.6969 90.332 19.1572C90.7148 19.6175 90.9108 20.3057 90.9199 21.2217V26H88.9443V21.2695C88.9443 20.8503 88.8532 20.5472 88.6709 20.3604C88.4886 20.1689 88.1855 20.0732 87.7617 20.0732C87.2057 20.0732 86.7887 20.3102 86.5107 20.7842V26H84.5352V18.6035H86.3945Z" fill="black"/>
</svg>
