<svg width="34" height="23" viewBox="0 0 34 23" fill="none" xmlns="http://www.w3.org/2000/svg">
<g clip-path="url(#clip0_579_4187)">
<path d="M22.9227 11.458L23.5915 10.9853C23.8377 10.8111 23.9733 10.5823 23.9733 10.3411C23.9733 9.82935 23.3631 9.41309 22.6131 9.41309C22.0391 9.41309 21.4379 9.50055 20.8239 9.67112L18.2051 11.458L20.8239 13.2449C21.4379 13.4154 22.0391 13.5029 22.6131 13.5029C23.3632 13.5029 23.9733 13.0866 23.9733 12.5749C23.9733 12.3336 23.8377 12.1049 23.5915 11.9309L22.9227 11.458Z" fill="#53CC35"/>
<path d="M19.4125 14.2078L16.7939 12.4209L14.1751 14.2078C13.9251 14.6266 13.7969 15.0369 13.7969 15.4285C13.7969 15.9403 14.407 16.3565 15.157 16.3565C15.5106 16.3565 15.8459 16.264 16.1009 16.096L16.7938 15.6397L17.4867 16.096C17.7417 16.264 18.077 16.3565 18.4306 16.3565C19.1806 16.3565 19.7907 15.9402 19.7907 15.4285C19.7908 15.0369 19.6626 14.6267 19.4125 14.2078Z" fill="#53CC35"/>
<path d="M12.7641 9.67112C12.1501 9.50055 11.5489 9.41309 10.9749 9.41309C10.2248 9.41309 9.61475 9.82939 9.61475 10.3411C9.61475 10.5824 9.75034 10.8111 9.99654 10.9851L10.6653 11.4579L9.99654 11.9306C9.75034 12.1046 9.61475 12.3334 9.61475 12.5747C9.61475 13.0864 10.2249 13.5026 10.9749 13.5026C11.5489 13.5026 12.1501 13.4152 12.7641 13.2446L15.3829 11.458L12.7641 9.67112Z" fill="#53CC35"/>
<path d="M18.4306 6.55957C18.0769 6.55957 17.7417 6.65209 17.4867 6.82007L16.7938 7.27639L16.1009 6.82007C15.8459 6.65209 15.5106 6.55957 15.157 6.55957C14.407 6.55957 13.7969 6.97587 13.7969 7.48756C13.7969 7.8792 13.9251 8.28942 14.1751 8.70832L16.7937 10.4952L19.4126 8.70832C19.6626 8.28947 19.7908 7.8792 19.7908 7.48756C19.7908 6.97587 19.1806 6.55957 18.4306 6.55957Z" fill="#53CC35"/>
<path d="M16.7939 3.19922C10.119 3.19922 4.68848 6.90438 4.68848 11.4587C4.68848 16.0129 10.1189 19.7181 16.7939 19.7181C23.4689 19.7181 28.8994 16.0129 28.8994 11.4587C28.8994 6.90438 23.4688 3.19922 16.7939 3.19922ZM22.6129 14.865C22.3176 14.865 22.0198 14.8498 21.7202 14.8198C21.7643 15.0242 21.7864 15.2274 21.7864 15.4289C21.7864 16.6914 20.2811 17.7184 18.4308 17.7184C17.8499 17.7184 17.2893 17.6175 16.7939 17.428C16.2985 17.6175 15.7379 17.7184 15.157 17.7184C13.3068 17.7184 11.8015 16.6914 11.8015 15.4289C11.8015 15.2274 11.8237 15.0242 11.8676 14.8198C11.5681 14.8499 11.2702 14.865 10.9749 14.865C9.12462 14.865 7.61934 13.8379 7.61934 12.5755C7.61934 12.1792 7.76727 11.7966 8.04502 11.4587C7.76727 11.1206 7.61934 10.7382 7.61934 10.3418C7.61934 9.0794 9.12462 8.05236 10.9749 8.05236C11.2702 8.05236 11.5681 8.06749 11.8676 8.09748C11.8236 7.89311 11.8015 7.6899 11.8015 7.4884C11.8015 6.22596 13.3068 5.19892 15.157 5.19892C15.7379 5.19892 16.2986 5.29985 16.7939 5.48936C17.2893 5.29985 17.8499 5.19892 18.4308 5.19892C20.2811 5.19892 21.7864 6.22596 21.7864 7.4884C21.7864 7.6899 21.7642 7.89311 21.7202 8.09748C22.0198 8.06744 22.3176 8.05236 22.6129 8.05236C24.4632 8.05236 25.9685 9.0794 25.9685 10.3418C25.9685 10.7382 25.8206 11.1207 25.5428 11.4587C25.8206 11.7967 25.9685 12.1792 25.9685 12.5755C25.9684 13.8379 24.4632 14.865 22.6129 14.865Z" fill="#53CC35"/>
<path d="M28.6689 3.35604C25.497 1.19185 21.2797 0 16.7939 0C12.3081 0 8.09079 1.19185 4.91877 3.35604C1.74683 5.52028 0 8.39766 0 11.4583C0 14.519 1.74683 17.3964 4.91877 19.5606C8.09079 21.7248 12.308 22.9167 16.7939 22.9167C21.2798 22.9167 25.4971 21.7248 28.669 19.5606C31.841 17.3964 33.5878 14.519 33.5878 11.4583C33.5878 8.39766 31.8409 5.52028 28.6689 3.35604ZM16.7939 21.0792C9.01865 21.0792 2.69306 16.7633 2.69306 11.4583C2.69306 6.15335 9.01865 1.83745 16.7939 1.83745C24.5691 1.83745 30.8947 6.15335 30.8947 11.4583C30.8947 16.7633 24.5691 21.0792 16.7939 21.0792Z" fill="#53CC35"/>
</g>
<defs>
<clipPath id="clip0_579_4187">
<rect width="33.5878" height="22.9167" fill="white"/>
</clipPath>
</defs>
</svg>
