<svg width="20" height="23" viewBox="0 0 20 23" fill="none" xmlns="http://www.w3.org/2000/svg">
<path d="M6 18.2685C4.9 18.2685 4.01 19.2591 4.01 20.4698C4.01 21.6805 4.9 22.6711 6 22.6711C7.1 22.6711 8 21.6805 8 20.4698C8 19.2591 7.1 18.2685 6 18.2685ZM0 0.657715V2.85906H2L5.6 11.2132L4.25 13.9098C4.09 14.218 4 14.5812 4 14.9664C4 16.1772 4.9 17.1678 6 17.1678H18V14.9664H6.42C6.28 14.9664 6.17 14.8454 6.17 14.6913L6.2 14.5592L7.1 12.7651H14.55C15.3 12.7651 15.96 12.3138 16.3 11.6314L19.88 4.48805C19.96 4.33396 20 4.14684 20 3.95973C20 3.35436 19.55 2.85906 19 2.85906H4.21L3.27 0.657715H0ZM16 18.2685C14.9 18.2685 14.01 19.2591 14.01 20.4698C14.01 21.6805 14.9 22.6711 16 22.6711C17.1 22.6711 18 21.6805 18 20.4698C18 19.2591 17.1 18.2685 16 18.2685Z" fill="black"/>
</svg>
