<svg width="22" height="14" viewBox="0 0 22 14" fill="none" xmlns="http://www.w3.org/2000/svg">
<path d="M1.25 13.7529C1.05109 13.7529 0.860322 13.6739 0.71967 13.5333C0.579018 13.3926 0.5 13.2018 0.5 13.0029C0.5 12.804 0.579018 12.6133 0.71967 12.4726C0.860322 12.3319 1.05109 12.2529 1.25 12.2529H20.75C20.9489 12.2529 21.1397 12.3319 21.2803 12.4726C21.421 12.6133 21.5 12.804 21.5 13.0029C21.5 13.2018 21.421 13.3926 21.2803 13.5333C21.1397 13.6739 20.9489 13.7529 20.75 13.7529H1.25Z" fill="white"/>
<path d="M1.25 7.75293C1.05109 7.75293 0.860322 7.67391 0.71967 7.53326C0.579018 7.39261 0.5 7.20184 0.5 7.00293C0.5 6.80402 0.579018 6.61325 0.71967 6.4726C0.860322 6.33195 1.05109 6.25293 1.25 6.25293H20.75C20.9489 6.25293 21.1397 6.33195 21.2803 6.4726C21.421 6.61325 21.5 6.80402 21.5 7.00293C21.5 7.20184 21.421 7.39261 21.2803 7.53326C21.1397 7.67391 20.9489 7.75293 20.75 7.75293H1.25Z" fill="white"/>
<path d="M1.25 1.75293C1.05109 1.75293 0.860322 1.67391 0.71967 1.53326C0.579018 1.39261 0.5 1.20184 0.5 1.00293C0.5 0.804017 0.579018 0.613252 0.71967 0.4726C0.860322 0.331948 1.05109 0.25293 1.25 0.25293H20.75C20.9489 0.25293 21.1397 0.331948 21.2803 0.4726C21.421 0.613252 21.5 0.804017 21.5 1.00293C21.5 1.20184 21.421 1.39261 21.2803 1.53326C21.1397 1.67391 20.9489 1.75293 20.75 1.75293H1.25Z" fill="white"/>
</svg>
